<svg width="167" height="207" viewBox="0 0 167 207" fill="none" xmlns="http://www.w3.org/2000/svg">
<path d="M58.8838 126L63.2518 116.2H65.4918L69.8738 126H67.4938L63.9098 117.348H64.8058L61.2078 126H58.8838ZM61.0678 123.9L61.6698 122.178H66.7098L67.3258 123.9H61.0678ZM73.9022 126.112C73.1928 126.112 72.5535 125.953 71.9842 125.636C71.4148 125.309 70.9622 124.857 70.6262 124.278C70.2995 123.699 70.1362 123.018 70.1362 122.234C70.1362 121.441 70.2995 120.755 70.6262 120.176C70.9622 119.597 71.4148 119.149 71.9842 118.832C72.5535 118.515 73.1928 118.356 73.9022 118.356C74.5368 118.356 75.0922 118.496 75.5682 118.776C76.0442 119.056 76.4128 119.481 76.6742 120.05C76.9355 120.619 77.0662 121.347 77.0662 122.234C77.0662 123.111 76.9402 123.839 76.6882 124.418C76.4362 124.987 76.0722 125.412 75.5962 125.692C75.1295 125.972 74.5648 126.112 73.9022 126.112ZM74.2802 124.32C74.6348 124.32 74.9568 124.236 75.2462 124.068C75.5355 123.9 75.7642 123.662 75.9322 123.354C76.1095 123.037 76.1982 122.663 76.1982 122.234C76.1982 121.795 76.1095 121.422 75.9322 121.114C75.7642 120.806 75.5355 120.568 75.2462 120.4C74.9568 120.232 74.6348 120.148 74.2802 120.148C73.9162 120.148 73.5895 120.232 73.3002 120.4C73.0108 120.568 72.7775 120.806 72.6002 121.114C72.4322 121.422 72.3482 121.795 72.3482 122.234C72.3482 122.663 72.4322 123.037 72.6002 123.354C72.7775 123.662 73.0108 123.9 73.3002 124.068C73.5895 124.236 73.9162 124.32 74.2802 124.32ZM76.2542 126V124.46L76.2962 122.22L76.1562 119.994V115.612H78.3402V126H76.2542ZM83.9455 126.112C83.1428 126.112 82.4288 125.944 81.8035 125.608C81.1875 125.272 80.6975 124.815 80.3335 124.236C79.9788 123.648 79.8015 122.981 79.8015 122.234C79.8015 121.478 79.9788 120.811 80.3335 120.232C80.6975 119.644 81.1875 119.187 81.8035 118.86C82.4288 118.524 83.1428 118.356 83.9455 118.356C84.7388 118.356 85.4482 118.524 86.0735 118.86C86.6988 119.187 87.1888 119.639 87.5435 120.218C87.8982 120.797 88.0755 121.469 88.0755 122.234C88.0755 122.981 87.8982 123.648 87.5435 124.236C87.1888 124.815 86.6988 125.272 86.0735 125.608C85.4482 125.944 84.7388 126.112 83.9455 126.112ZM83.9455 124.32C84.3095 124.32 84.6362 124.236 84.9255 124.068C85.2148 123.9 85.4435 123.662 85.6115 123.354C85.7795 123.037 85.8635 122.663 85.8635 122.234C85.8635 121.795 85.7795 121.422 85.6115 121.114C85.4435 120.806 85.2148 120.568 84.9255 120.4C84.6362 120.232 84.3095 120.148 83.9455 120.148C83.5815 120.148 83.2548 120.232 82.9655 120.4C82.6762 120.568 82.4428 120.806 82.2655 121.114C82.0975 121.422 82.0135 121.795 82.0135 122.234C82.0135 122.663 82.0975 123.037 82.2655 123.354C82.4428 123.662 82.6762 123.9 82.9655 124.068C83.2548 124.236 83.5815 124.32 83.9455 124.32ZM93.9873 126.112C93.3247 126.112 92.7553 125.972 92.2793 125.692C91.8033 125.412 91.4393 124.987 91.1873 124.418C90.9353 123.839 90.8093 123.111 90.8093 122.234C90.8093 121.347 90.94 120.619 91.2013 120.05C91.472 119.481 91.8453 119.056 92.3213 118.776C92.7973 118.496 93.3527 118.356 93.9873 118.356C94.6967 118.356 95.3313 118.515 95.8913 118.832C96.4607 119.149 96.9087 119.597 97.2353 120.176C97.5713 120.755 97.7393 121.441 97.7393 122.234C97.7393 123.018 97.5713 123.699 97.2353 124.278C96.9087 124.857 96.4607 125.309 95.8913 125.636C95.3313 125.953 94.6967 126.112 93.9873 126.112ZM89.5353 126V115.612H91.7193V119.994L91.5793 122.22L91.6213 124.46V126H89.5353ZM93.6093 124.32C93.9733 124.32 94.2953 124.236 94.5753 124.068C94.8647 123.9 95.0933 123.662 95.2613 123.354C95.4387 123.037 95.5273 122.663 95.5273 122.234C95.5273 121.795 95.4387 121.422 95.2613 121.114C95.0933 120.806 94.8647 120.568 94.5753 120.4C94.2953 120.232 93.9733 120.148 93.6093 120.148C93.2453 120.148 92.9187 120.232 92.6293 120.4C92.34 120.568 92.1113 120.806 91.9433 121.114C91.7753 121.422 91.6913 121.795 91.6913 122.234C91.6913 122.663 91.7753 123.037 91.9433 123.354C92.1113 123.662 92.34 123.9 92.6293 124.068C92.9187 124.236 93.2453 124.32 93.6093 124.32ZM102.939 126.112C102.081 126.112 101.325 125.944 100.671 125.608C100.027 125.272 99.528 124.815 99.1734 124.236C98.8187 123.648 98.6414 122.981 98.6414 122.234C98.6414 121.478 98.814 120.811 99.1594 120.232C99.514 119.644 99.9947 119.187 100.601 118.86C101.208 118.524 101.894 118.356 102.659 118.356C103.397 118.356 104.059 118.515 104.647 118.832C105.245 119.14 105.716 119.588 106.061 120.176C106.407 120.755 106.579 121.45 106.579 122.262C106.579 122.346 106.575 122.444 106.565 122.556C106.556 122.659 106.547 122.757 106.537 122.85H100.419V121.576H105.389L104.549 121.954C104.549 121.562 104.47 121.221 104.311 120.932C104.153 120.643 103.933 120.419 103.653 120.26C103.373 120.092 103.047 120.008 102.673 120.008C102.3 120.008 101.969 120.092 101.679 120.26C101.399 120.419 101.18 120.647 101.021 120.946C100.863 121.235 100.783 121.581 100.783 121.982V122.318C100.783 122.729 100.872 123.093 101.049 123.41C101.236 123.718 101.493 123.956 101.819 124.124C102.155 124.283 102.547 124.362 102.995 124.362C103.397 124.362 103.747 124.301 104.045 124.18C104.353 124.059 104.633 123.877 104.885 123.634L106.047 124.894C105.702 125.286 105.268 125.589 104.745 125.804C104.223 126.009 103.621 126.112 102.939 126.112ZM38.9844 143L43.3524 133.2H45.5924L49.9744 143H47.5944L44.0104 134.348H44.9064L41.3084 143H38.9844ZM41.1684 140.9L41.7704 139.178H46.8104L47.4264 140.9H41.1684ZM51.1031 143V135.3C51.1031 134.451 51.3551 133.774 51.8591 133.27C52.3631 132.757 53.0818 132.5 54.0151 132.5C54.3324 132.5 54.6358 132.533 54.9251 132.598C55.2238 132.663 55.4758 132.766 55.6811 132.906L55.1071 134.488C54.9858 134.404 54.8504 134.339 54.7011 134.292C54.5518 134.245 54.3931 134.222 54.2251 134.222C53.9078 134.222 53.6604 134.315 53.4831 134.502C53.3151 134.679 53.2311 134.95 53.2311 135.314V136.014L53.2871 136.952V143H51.1031ZM49.9411 137.316V135.636H55.1631V137.316H49.9411ZM59.3312 143.112C58.4445 143.112 57.7538 142.888 57.2592 142.44C56.7645 141.983 56.5172 141.306 56.5172 140.41V133.802H58.7012V140.382C58.7012 140.699 58.7852 140.947 58.9532 141.124C59.1212 141.292 59.3498 141.376 59.6392 141.376C59.9845 141.376 60.2785 141.283 60.5212 141.096L61.1092 142.636C60.8852 142.795 60.6145 142.916 60.2972 143C59.9892 143.075 59.6672 143.112 59.3312 143.112ZM55.3552 137.316V135.636H60.5772V137.316H55.3552ZM65.8407 143.112C64.9821 143.112 64.2261 142.944 63.5727 142.608C62.9287 142.272 62.4294 141.815 62.0747 141.236C61.7201 140.648 61.5427 139.981 61.5427 139.234C61.5427 138.478 61.7154 137.811 62.0607 137.232C62.4154 136.644 62.8961 136.187 63.5027 135.86C64.1094 135.524 64.7954 135.356 65.5607 135.356C66.2981 135.356 66.9607 135.515 67.5487 135.832C68.1461 136.14 68.6174 136.588 68.9627 137.176C69.3081 137.755 69.4807 138.45 69.4807 139.262C69.4807 139.346 69.4761 139.444 69.4667 139.556C69.4574 139.659 69.4481 139.757 69.4387 139.85H63.3207V138.576H68.2907L67.4507 138.954C67.4507 138.562 67.3714 138.221 67.2127 137.932C67.0541 137.643 66.8347 137.419 66.5547 137.26C66.2747 137.092 65.9481 137.008 65.5747 137.008C65.2014 137.008 64.8701 137.092 64.5807 137.26C64.3007 137.419 64.0814 137.647 63.9227 137.946C63.7641 138.235 63.6847 138.581 63.6847 138.982V139.318C63.6847 139.729 63.7734 140.093 63.9507 140.41C64.1374 140.718 64.3941 140.956 64.7207 141.124C65.0567 141.283 65.4487 141.362 65.8967 141.362C66.2981 141.362 66.6481 141.301 66.9467 141.18C67.2547 141.059 67.5347 140.877 67.7867 140.634L68.9487 141.894C68.6034 142.286 68.1694 142.589 67.6467 142.804C67.1241 143.009 66.5221 143.112 65.8407 143.112ZM70.9348 143V135.468H73.0208V137.596L72.7268 136.98C72.9508 136.448 73.3101 136.047 73.8048 135.776C74.2994 135.496 74.9014 135.356 75.6108 135.356V137.372C75.5174 137.363 75.4334 137.358 75.3588 137.358C75.2841 137.349 75.2048 137.344 75.1208 137.344C74.5234 137.344 74.0381 137.517 73.6648 137.862C73.3008 138.198 73.1188 138.725 73.1188 139.444V143H70.9348ZM83.1689 137.148H87.8869V138.912H83.1689V137.148ZM83.3369 141.18H88.6709V143H81.0829V133.2H88.4889V135.02H83.3369V141.18ZM90.5875 143V135.3C90.5875 134.451 90.8395 133.774 91.3435 133.27C91.8475 132.757 92.5661 132.5 93.4995 132.5C93.8168 132.5 94.1201 132.533 94.4095 132.598C94.7081 132.663 94.9601 132.766 95.1655 132.906L94.5915 134.488C94.4701 134.404 94.3348 134.339 94.1855 134.292C94.0361 134.245 93.8775 134.222 93.7095 134.222C93.3921 134.222 93.1448 134.315 92.9675 134.502C92.7995 134.679 92.7155 134.95 92.7155 135.314V136.014L92.7715 136.952V143H90.5875ZM89.4255 137.316V135.636H94.6475V137.316H89.4255ZM96.1109 143V135.3C96.1109 134.451 96.3629 133.774 96.8669 133.27C97.3709 132.757 98.0896 132.5 99.0229 132.5C99.3402 132.5 99.6436 132.533 99.9329 132.598C100.232 132.663 100.484 132.766 100.689 132.906L100.115 134.488C99.9936 134.404 99.8582 134.339 99.7089 134.292C99.5596 134.245 99.4009 134.222 99.2329 134.222C98.9156 134.222 98.6682 134.315 98.4909 134.502C98.3229 134.679 98.2389 134.95 98.2389 135.314V136.014L98.2949 136.952V143H96.1109ZM94.9489 137.316V135.636H100.171V137.316H94.9489ZM104.901 143.112C104.043 143.112 103.287 142.944 102.633 142.608C101.989 142.272 101.49 141.815 101.135 141.236C100.781 140.648 100.603 139.981 100.603 139.234C100.603 138.478 100.776 137.811 101.121 137.232C101.476 136.644 101.957 136.187 102.563 135.86C103.17 135.524 103.856 135.356 104.621 135.356C105.359 135.356 106.021 135.515 106.609 135.832C107.207 136.14 107.678 136.588 108.023 137.176C108.369 137.755 108.541 138.45 108.541 139.262C108.541 139.346 108.537 139.444 108.527 139.556C108.518 139.659 108.509 139.757 108.499 139.85H102.381V138.576H107.351L106.511 138.954C106.511 138.562 106.432 138.221 106.273 137.932C106.115 137.643 105.895 137.419 105.615 137.26C105.335 137.092 105.009 137.008 104.635 137.008C104.262 137.008 103.931 137.092 103.641 137.26C103.361 137.419 103.142 137.647 102.983 137.946C102.825 138.235 102.745 138.581 102.745 138.982V139.318C102.745 139.729 102.834 140.093 103.011 140.41C103.198 140.718 103.455 140.956 103.781 141.124C104.117 141.283 104.509 141.362 104.957 141.362C105.359 141.362 105.709 141.301 106.007 141.18C106.315 141.059 106.595 140.877 106.847 140.634L108.009 141.894C107.664 142.286 107.23 142.589 106.707 142.804C106.185 143.009 105.583 143.112 104.901 143.112ZM113.635 143.112C112.823 143.112 112.1 142.949 111.465 142.622C110.831 142.286 110.331 141.824 109.967 141.236C109.613 140.648 109.435 139.981 109.435 139.234C109.435 138.478 109.613 137.811 109.967 137.232C110.331 136.644 110.831 136.187 111.465 135.86C112.1 135.524 112.823 135.356 113.635 135.356C114.429 135.356 115.119 135.524 115.707 135.86C116.295 136.187 116.729 136.658 117.009 137.274L115.315 138.184C115.119 137.829 114.872 137.568 114.573 137.4C114.284 137.232 113.967 137.148 113.621 137.148C113.248 137.148 112.912 137.232 112.613 137.4C112.315 137.568 112.077 137.806 111.899 138.114C111.731 138.422 111.647 138.795 111.647 139.234C111.647 139.673 111.731 140.046 111.899 140.354C112.077 140.662 112.315 140.9 112.613 141.068C112.912 141.236 113.248 141.32 113.621 141.32C113.967 141.32 114.284 141.241 114.573 141.082C114.872 140.914 115.119 140.648 115.315 140.284L117.009 141.208C116.729 141.815 116.295 142.286 115.707 142.622C115.119 142.949 114.429 143.112 113.635 143.112ZM121.456 143.112C120.569 143.112 119.879 142.888 119.384 142.44C118.889 141.983 118.642 141.306 118.642 140.41V133.802H120.826V140.382C120.826 140.699 120.91 140.947 121.078 141.124C121.246 141.292 121.475 141.376 121.764 141.376C122.109 141.376 122.403 141.283 122.646 141.096L123.234 142.636C123.01 142.795 122.739 142.916 122.422 143C122.114 143.075 121.792 143.112 121.456 143.112ZM117.48 137.316V135.636H122.702V137.316H117.48ZM126.994 143.112C126.35 143.112 125.729 143.037 125.132 142.888C124.544 142.729 124.077 142.533 123.732 142.3L124.46 140.732C124.805 140.947 125.211 141.124 125.678 141.264C126.154 141.395 126.621 141.46 127.078 141.46C127.582 141.46 127.937 141.399 128.142 141.278C128.357 141.157 128.464 140.989 128.464 140.774C128.464 140.597 128.38 140.466 128.212 140.382C128.053 140.289 127.839 140.219 127.568 140.172C127.297 140.125 126.999 140.079 126.672 140.032C126.355 139.985 126.033 139.925 125.706 139.85C125.379 139.766 125.081 139.645 124.81 139.486C124.539 139.327 124.32 139.113 124.152 138.842C123.993 138.571 123.914 138.221 123.914 137.792C123.914 137.316 124.049 136.896 124.32 136.532C124.6 136.168 125.001 135.883 125.524 135.678C126.047 135.463 126.672 135.356 127.4 135.356C127.913 135.356 128.436 135.412 128.968 135.524C129.5 135.636 129.943 135.799 130.298 136.014L129.57 137.568C129.206 137.353 128.837 137.209 128.464 137.134C128.1 137.05 127.745 137.008 127.4 137.008C126.915 137.008 126.56 137.073 126.336 137.204C126.112 137.335 126 137.503 126 137.708C126 137.895 126.079 138.035 126.238 138.128C126.406 138.221 126.625 138.296 126.896 138.352C127.167 138.408 127.461 138.459 127.778 138.506C128.105 138.543 128.431 138.604 128.758 138.688C129.085 138.772 129.379 138.893 129.64 139.052C129.911 139.201 130.13 139.411 130.298 139.682C130.466 139.943 130.55 140.289 130.55 140.718C130.55 141.185 130.41 141.6 130.13 141.964C129.85 142.319 129.444 142.599 128.912 142.804C128.389 143.009 127.75 143.112 126.994 143.112Z" fill="#828282"/>
<path d="M43.0706 4.45312H124.831V85.458H43.0706V4.45312Z" fill="url(#paint0_radial_167_584)"/>
<path d="M43.0706 4.45367H124.831V85.4586H43.0706V4.45367ZM39.355 89.2423H128.565V0.669922H39.355V89.2423ZM102.466 43.3644C104.36 43.3644 105.038 43.3644 105.217 43.2916C105.217 43.0188 105.289 42.8369 105.289 42.6549C105.289 40.6175 104.324 36.8338 100.465 36.8338C96.8928 36.8338 95.3744 40.0172 94.9993 43.3826H102.466V43.3644ZM94.9278 48.5489C94.9993 53.6606 97.3751 57.0987 103.038 57.0987C105.235 57.0987 107.129 56.7894 109.093 55.9344C109.361 55.8253 109.54 55.8617 109.54 56.2073V60.937C109.54 61.319 109.433 61.5009 109.165 61.701C107.2 62.6833 104.735 63.1381 101.698 63.1381C91.8911 63.1381 88.2112 55.7525 88.2112 47.5483C88.2112 38.6165 92.7485 31.3037 100.733 31.3037C108.843 31.3037 111.666 38.2345 111.666 43.8737C111.666 45.6929 111.559 47.1663 111.362 47.894C111.291 48.2032 111.183 48.3124 110.88 48.3851C110.13 48.4943 107.95 48.658 104.681 48.658H94.9457V48.5489H94.9278ZM74.9924 44.6923C73.9563 40.4902 71.4197 31.3401 70.4908 26.9015H70.4193C69.6333 31.3219 67.5969 38.8166 66.0785 44.6923H74.9924ZM64.5602 50.8227L61.6306 62.1376C61.5591 62.4468 61.4519 62.556 61.0768 62.556H55.5928C55.2176 62.556 55.1462 62.4468 55.2176 61.9921L65.7749 24.4093C65.9535 23.7362 66.0785 23.1905 66.15 21.2986C66.15 21.0257 66.2572 20.9166 66.4537 20.9166H74.26C74.5279 20.9166 74.6351 20.9894 74.7065 21.2986L86.5142 62.0648C86.5857 62.3741 86.5142 62.556 86.2105 62.556H80.0834C79.7797 62.556 79.6011 62.4468 79.5296 62.174L76.475 50.8227H64.5602Z" fill="#D8A1FF"/>
<path d="M12.2142 183.86C12.514 182.939 13.816 182.939 14.1158 183.86L15.8669 189.234C16.001 189.646 16.3848 189.924 16.8177 189.924H22.4785C23.4478 189.924 23.8502 191.165 23.0652 191.734L18.4903 195.049C18.1388 195.303 17.9918 195.756 18.1262 196.168L19.8748 201.535C20.1748 202.456 19.1215 203.223 18.3373 202.654L13.7517 199.332C13.4017 199.078 12.9283 199.078 12.5783 199.332L7.99273 202.654C7.20847 203.223 6.15518 202.456 6.4552 201.535L8.20377 196.168C8.33823 195.756 8.19115 195.303 7.83969 195.049L3.26482 191.734C2.47981 191.165 2.88214 189.924 3.85153 189.924H9.51229C9.94522 189.924 10.329 189.646 10.4631 189.234L12.2142 183.86Z" fill="#070707"/>
<path d="M47.3116 183.86C47.6114 182.939 48.9134 182.939 49.2132 183.86L50.9643 189.234C51.0984 189.646 51.4822 189.924 51.9151 189.924H57.5759C58.5453 189.924 58.9476 191.165 58.1626 191.734L53.5877 195.049C53.2362 195.303 53.0892 195.756 53.2236 196.168L54.9722 201.535C55.2722 202.456 54.2189 203.223 53.4347 202.654L48.8491 199.332C48.4991 199.078 48.0257 199.078 47.6757 199.332L43.0901 202.654C42.3059 203.223 41.2526 202.456 41.5526 201.535L43.3012 196.168C43.4356 195.756 43.2886 195.303 42.9371 195.049L38.3622 191.734C37.5772 191.165 37.9796 189.924 38.9489 189.924H44.6097C45.0426 189.924 45.4264 189.646 45.5605 189.234L47.3116 183.86Z" fill="#070707"/>
<path d="M82.4085 183.86C82.7084 182.939 84.0103 182.939 84.3101 183.86L86.0612 189.234C86.1953 189.646 86.5791 189.924 87.012 189.924H92.6728C93.6422 189.924 94.0445 191.165 93.2595 191.734L88.6846 195.049C88.3332 195.303 88.1861 195.756 88.3205 196.168L90.0691 201.535C90.3691 202.456 89.3159 203.223 88.5316 202.654L83.946 199.332C83.596 199.078 83.1226 199.078 82.7726 199.332L78.1871 202.654C77.4028 203.223 76.3495 202.456 76.6495 201.535L78.3981 196.168C78.5326 195.756 78.3855 195.303 78.034 195.049L73.4592 191.734C72.6741 191.165 73.0765 189.924 74.0459 189.924H79.7066C80.1396 189.924 80.5233 189.646 80.6574 189.234L82.4085 183.86Z" fill="#070707"/>
<path d="M117.506 183.86C117.806 182.939 119.107 182.939 119.407 183.86L121.158 189.234C121.293 189.646 121.676 189.924 122.109 189.924H127.77C128.739 189.924 129.142 191.165 128.357 191.734L123.782 195.049C123.43 195.303 123.283 195.756 123.418 196.168L125.166 201.535C125.466 202.456 124.413 203.223 123.629 202.654L119.043 199.332C118.693 199.078 118.22 199.078 117.87 199.332L113.284 202.654C112.5 203.223 111.447 202.456 111.747 201.535L113.495 196.168C113.63 195.756 113.483 195.303 113.131 195.049L108.556 191.734C107.771 191.165 108.174 189.924 109.143 189.924H114.804C115.237 189.924 115.62 189.646 115.755 189.234L117.506 183.86Z" fill="#070707"/>
<path d="M152.603 183.86C152.903 182.939 154.205 182.939 154.504 183.86L156.256 189.234C156.39 189.646 156.773 189.924 157.206 189.924H162.867C163.837 189.924 164.239 191.165 163.454 191.734L158.879 195.049C158.528 195.303 158.38 195.756 158.515 196.168L160.263 201.535C160.563 202.456 159.51 203.223 158.726 202.654L154.14 199.332C153.79 199.078 153.317 199.078 152.967 199.332L148.381 202.654C147.597 203.223 146.544 202.456 146.844 201.535L148.592 196.168C148.727 195.756 148.58 195.303 148.228 195.049L143.653 191.734C142.868 191.165 143.271 189.924 144.24 189.924H149.901C150.334 189.924 150.718 189.646 150.852 189.234L152.603 183.86Z" fill="#E5E5E5"/>
<defs>
<radialGradient id="paint0_radial_167_584" cx="0" cy="0" r="1" gradientUnits="userSpaceOnUse" gradientTransform="translate(70.023 22.6143) scale(62.1407 61.2673)">
<stop stop-color="#442F55" stop-opacity="0.98"/>
<stop offset="1" stop-color="#12002C"/>
</radialGradient>
</defs>
</svg>
