<svg width="168" height="206" viewBox="0 0 168 206" fill="none" xmlns="http://www.w3.org/2000/svg">
<path d="M66.6224 121.61H71.3264V123.43H66.6224V121.61ZM66.7904 127H64.5224V117.2H71.9284V119.02H66.7904V127ZM73.3098 127V119.468H75.4938V127H73.3098ZM74.4018 118.418C74.0004 118.418 73.6738 118.301 73.4218 118.068C73.1698 117.835 73.0438 117.545 73.0438 117.2C73.0438 116.855 73.1698 116.565 73.4218 116.332C73.6738 116.099 74.0004 115.982 74.4018 115.982C74.8031 115.982 75.1298 116.094 75.3818 116.318C75.6338 116.533 75.7598 116.813 75.7598 117.158C75.7598 117.522 75.6338 117.825 75.3818 118.068C75.1391 118.301 74.8124 118.418 74.4018 118.418ZM81.0627 129.828C80.3534 129.828 79.6674 129.739 79.0047 129.562C78.3514 129.394 77.8054 129.137 77.3667 128.792L78.2347 127.224C78.552 127.485 78.9534 127.691 79.4387 127.84C79.9334 127.999 80.4187 128.078 80.8947 128.078C81.6694 128.078 82.2294 127.905 82.5747 127.56C82.9294 127.215 83.1067 126.701 83.1067 126.02V124.886L83.2467 122.996L83.2187 121.092V119.468H85.2907V125.74C85.2907 127.14 84.9267 128.171 84.1987 128.834C83.4707 129.497 82.4254 129.828 81.0627 129.828ZM80.7267 126.636C80.0267 126.636 79.392 126.487 78.8227 126.188C78.2627 125.88 77.81 125.455 77.4647 124.914C77.1287 124.363 76.9607 123.724 76.9607 122.996C76.9607 122.259 77.1287 121.619 77.4647 121.078C77.81 120.527 78.2627 120.103 78.8227 119.804C79.392 119.505 80.0267 119.356 80.7267 119.356C81.3614 119.356 81.9214 119.487 82.4067 119.748C82.892 120 83.27 120.397 83.5407 120.938C83.8114 121.47 83.9467 122.156 83.9467 122.996C83.9467 123.827 83.8114 124.513 83.5407 125.054C83.27 125.586 82.892 125.983 82.4067 126.244C81.9214 126.505 81.3614 126.636 80.7267 126.636ZM81.1607 124.844C81.5434 124.844 81.884 124.769 82.1827 124.62C82.4814 124.461 82.7147 124.242 82.8827 123.962C83.0507 123.682 83.1347 123.36 83.1347 122.996C83.1347 122.623 83.0507 122.301 82.8827 122.03C82.7147 121.75 82.4814 121.535 82.1827 121.386C81.884 121.227 81.5434 121.148 81.1607 121.148C80.778 121.148 80.4374 121.227 80.1387 121.386C79.84 121.535 79.602 121.75 79.4247 122.03C79.2567 122.301 79.1727 122.623 79.1727 122.996C79.1727 123.36 79.2567 123.682 79.4247 123.962C79.602 124.242 79.84 124.461 80.1387 124.62C80.4374 124.769 80.778 124.844 81.1607 124.844ZM96.9694 119.356C97.5668 119.356 98.0941 119.477 98.5514 119.72C99.0181 119.953 99.3821 120.317 99.6434 120.812C99.9141 121.297 100.049 121.923 100.049 122.688V127H97.8654V123.024C97.8654 122.417 97.7394 121.969 97.4874 121.68C97.2354 121.391 96.8808 121.246 96.4234 121.246C96.1061 121.246 95.8214 121.321 95.5694 121.47C95.3174 121.61 95.1214 121.825 94.9814 122.114C94.8414 122.403 94.7714 122.772 94.7714 123.22V127H92.5874V123.024C92.5874 122.417 92.4614 121.969 92.2094 121.68C91.9668 121.391 91.6168 121.246 91.1594 121.246C90.8421 121.246 90.5574 121.321 90.3054 121.47C90.0534 121.61 89.8574 121.825 89.7174 122.114C89.5774 122.403 89.5074 122.772 89.5074 123.22V127H87.3234V119.468H89.4094V121.526L89.0174 120.924C89.2788 120.411 89.6474 120.023 90.1234 119.762C90.6088 119.491 91.1594 119.356 91.7754 119.356C92.4661 119.356 93.0681 119.533 93.5814 119.888C94.1041 120.233 94.4494 120.765 94.6174 121.484L93.8474 121.274C94.0994 120.686 94.5008 120.219 95.0514 119.874C95.6114 119.529 96.2508 119.356 96.9694 119.356ZM106.627 127V125.53L106.487 125.208V122.576C106.487 122.109 106.342 121.745 106.053 121.484C105.773 121.223 105.339 121.092 104.751 121.092C104.35 121.092 103.953 121.157 103.561 121.288C103.178 121.409 102.852 121.577 102.581 121.792L101.797 120.266C102.208 119.977 102.702 119.753 103.281 119.594C103.86 119.435 104.448 119.356 105.045 119.356C106.193 119.356 107.084 119.627 107.719 120.168C108.354 120.709 108.671 121.554 108.671 122.702V127H106.627ZM104.331 127.112C103.743 127.112 103.239 127.014 102.819 126.818C102.399 126.613 102.077 126.337 101.853 125.992C101.629 125.647 101.517 125.259 101.517 124.83C101.517 124.382 101.624 123.99 101.839 123.654C102.063 123.318 102.413 123.057 102.889 122.87C103.365 122.674 103.986 122.576 104.751 122.576H106.753V123.85H104.989C104.476 123.85 104.121 123.934 103.925 124.102C103.738 124.27 103.645 124.48 103.645 124.732C103.645 125.012 103.752 125.236 103.967 125.404C104.191 125.563 104.494 125.642 104.877 125.642C105.241 125.642 105.568 125.558 105.857 125.39C106.146 125.213 106.356 124.956 106.487 124.62L106.823 125.628C106.664 126.113 106.375 126.482 105.955 126.734C105.535 126.986 104.994 127.112 104.331 127.112Z" fill="#828282"/>
<g clip-path="url(#clip0_167_595)">
<path d="M72.0513 89.6612C80.0898 89.6612 86.61 83.0214 86.61 74.8355V60.0098H72.0513C64.0128 60.0098 57.4927 66.6495 57.4927 74.8355C57.4927 83.0214 64.0128 89.6612 72.0513 89.6612Z" fill="#0ACF83"/>
<path d="M57.4927 45.1655C57.4927 36.9796 64.0128 30.3398 72.0513 30.3398H86.61V60.0094H72.0513C64.0128 59.9912 57.4927 53.3515 57.4927 45.1655Z" fill="#A259FF"/>
<path d="M57.4927 15.4956C57.4927 7.30965 64.0128 0.669922 72.0513 0.669922H86.61V30.3395H72.0513C64.0128 30.3395 57.4927 23.6816 57.4927 15.4956Z" fill="#F24E1E"/>
<path d="M86.6279 0.669922H101.187C109.225 0.669922 115.745 7.30965 115.745 15.4956C115.745 23.6816 109.225 30.3213 101.187 30.3213H86.6279V0.669922Z" fill="#FF7262"/>
<path d="M115.745 45.1655C115.745 53.3515 109.225 59.9913 101.187 59.9913C93.1481 59.9913 86.6279 53.3515 86.6279 45.1655C86.6279 36.9796 93.1481 30.3398 101.187 30.3398C109.225 30.3398 115.745 36.9796 115.745 45.1655Z" fill="#1ABCFE"/>
</g>
<path d="M12.9251 182.86C13.225 181.939 14.5269 181.939 14.8267 182.86L16.5778 188.234C16.7119 188.646 17.0957 188.924 17.5286 188.924H23.1894C24.1588 188.924 24.5611 190.165 23.7761 190.734L19.2012 194.049C18.8498 194.303 18.7027 194.756 18.8371 195.168L20.5857 200.535C20.8857 201.456 19.8325 202.223 19.0482 201.654L14.4626 198.332C14.1126 198.078 13.6392 198.078 13.2892 198.332L8.70366 201.654C7.91941 202.223 6.86612 201.456 7.16614 200.535L8.91471 195.168C9.04917 194.756 8.90209 194.303 8.55063 194.049L3.97575 190.734C3.19075 190.165 3.59308 188.924 4.56247 188.924H10.2232C10.6562 188.924 11.0399 188.646 11.174 188.234L12.9251 182.86Z" fill="#070707"/>
<path d="M48.022 182.86C48.3219 181.939 49.6238 181.939 49.9237 182.86L51.6748 188.234C51.8089 188.646 52.1926 188.924 52.6256 188.924H58.2863C59.2557 188.924 59.658 190.165 58.873 190.734L54.2982 194.049C53.9467 194.303 53.7996 194.756 53.9341 195.168L55.6826 200.535C55.9827 201.456 54.9294 202.223 54.1451 201.654L49.5596 198.332C49.2095 198.078 48.7362 198.078 48.3861 198.332L43.8006 201.654C43.0163 202.223 41.963 201.456 42.2631 200.535L44.0116 195.168C44.1461 194.756 43.999 194.303 43.6475 194.049L39.0727 190.734C38.2877 190.165 38.69 188.924 39.6594 188.924H45.3202C45.7531 188.924 46.1368 188.646 46.271 188.234L48.022 182.86Z" fill="#070707"/>
<path d="M83.1192 182.86C83.4191 181.939 84.721 181.939 85.0208 182.86L86.7719 188.234C86.906 188.646 87.2898 188.924 87.7227 188.924H93.3835C94.3529 188.924 94.7552 190.165 93.9702 190.734L89.3953 194.049C89.0439 194.303 88.8968 194.756 89.0312 195.168L90.7798 200.535C91.0798 201.456 90.0265 202.223 89.2423 201.654L84.6567 198.332C84.3067 198.078 83.8333 198.078 83.4833 198.332L78.8978 201.654C78.1135 202.223 77.0602 201.456 77.3602 200.535L79.1088 195.168C79.2433 194.756 79.0962 194.303 78.7447 194.049L74.1698 190.734C73.3848 190.165 73.7872 188.924 74.7566 188.924H80.4173C80.8502 188.924 81.234 188.646 81.3681 188.234L83.1192 182.86Z" fill="#070707"/>
<path d="M118.216 182.86C118.516 181.939 119.818 181.939 120.118 182.86L121.869 188.234C122.003 188.646 122.387 188.924 122.82 188.924H128.481C129.45 188.924 129.852 190.165 129.067 190.734L124.492 194.049C124.141 194.303 123.994 194.756 124.128 195.168L125.877 200.535C126.177 201.456 125.124 202.223 124.339 201.654L119.754 198.332C119.404 198.078 118.931 198.078 118.58 198.332L113.995 201.654C113.211 202.223 112.157 201.456 112.457 200.535L114.206 195.168C114.34 194.756 114.193 194.303 113.842 194.049L109.267 190.734C108.482 190.165 108.884 188.924 109.854 188.924H115.514C115.947 188.924 116.331 188.646 116.465 188.234L118.216 182.86Z" fill="#070707"/>
<path d="M153.314 182.86C153.613 181.939 154.915 181.939 155.215 182.86L156.966 188.234C157.1 188.646 157.484 188.924 157.917 188.924H163.578C164.547 188.924 164.95 190.165 164.165 190.734L159.59 194.049C159.238 194.303 159.091 194.756 159.226 195.168L160.974 200.535C161.274 201.456 160.221 202.223 159.437 201.654L154.851 198.332C154.501 198.078 154.028 198.078 153.678 198.332L149.092 201.654C148.308 202.223 147.255 201.456 147.555 200.535L149.303 195.168C149.438 194.756 149.291 194.303 148.939 194.049L144.364 190.734C143.579 190.165 143.982 188.924 144.951 188.924H150.612C151.045 188.924 151.428 188.646 151.562 188.234L153.314 182.86Z" fill="#E5E5E5"/>
<defs>
<clipPath id="clip0_167_595">
<rect width="58.2524" height="88.9906" fill="white" transform="translate(57.4927 0.669922)"/>
</clipPath>
</defs>
</svg>
