<svg width="167" height="207" viewBox="0 0 167 207" fill="none" xmlns="http://www.w3.org/2000/svg">
<path d="M59.3838 126L63.7518 116.2H65.9918L70.3738 126H67.9938L64.4098 117.348H65.3058L61.7078 126H59.3838ZM61.5678 123.9L62.1698 122.178H67.2098L67.8258 123.9H61.5678ZM74.4022 126.112C73.6928 126.112 73.0535 125.953 72.4842 125.636C71.9148 125.309 71.4622 124.857 71.1262 124.278C70.7995 123.699 70.6362 123.018 70.6362 122.234C70.6362 121.441 70.7995 120.755 71.1262 120.176C71.4622 119.597 71.9148 119.149 72.4842 118.832C73.0535 118.515 73.6928 118.356 74.4022 118.356C75.0368 118.356 75.5922 118.496 76.0682 118.776C76.5442 119.056 76.9128 119.481 77.1742 120.05C77.4355 120.619 77.5662 121.347 77.5662 122.234C77.5662 123.111 77.4402 123.839 77.1882 124.418C76.9362 124.987 76.5722 125.412 76.0962 125.692C75.6295 125.972 75.0648 126.112 74.4022 126.112ZM74.7802 124.32C75.1348 124.32 75.4568 124.236 75.7462 124.068C76.0355 123.9 76.2642 123.662 76.4322 123.354C76.6095 123.037 76.6982 122.663 76.6982 122.234C76.6982 121.795 76.6095 121.422 76.4322 121.114C76.2642 120.806 76.0355 120.568 75.7462 120.4C75.4568 120.232 75.1348 120.148 74.7802 120.148C74.4162 120.148 74.0895 120.232 73.8002 120.4C73.5108 120.568 73.2775 120.806 73.1002 121.114C72.9322 121.422 72.8482 121.795 72.8482 122.234C72.8482 122.663 72.9322 123.037 73.1002 123.354C73.2775 123.662 73.5108 123.9 73.8002 124.068C74.0895 124.236 74.4162 124.32 74.7802 124.32ZM76.7542 126V124.46L76.7962 122.22L76.6562 119.994V115.612H78.8402V126H76.7542ZM84.4455 126.112C83.6428 126.112 82.9288 125.944 82.3035 125.608C81.6875 125.272 81.1975 124.815 80.8335 124.236C80.4788 123.648 80.3015 122.981 80.3015 122.234C80.3015 121.478 80.4788 120.811 80.8335 120.232C81.1975 119.644 81.6875 119.187 82.3035 118.86C82.9288 118.524 83.6428 118.356 84.4455 118.356C85.2388 118.356 85.9482 118.524 86.5735 118.86C87.1988 119.187 87.6888 119.639 88.0435 120.218C88.3982 120.797 88.5755 121.469 88.5755 122.234C88.5755 122.981 88.3982 123.648 88.0435 124.236C87.6888 124.815 87.1988 125.272 86.5735 125.608C85.9482 125.944 85.2388 126.112 84.4455 126.112ZM84.4455 124.32C84.8095 124.32 85.1362 124.236 85.4255 124.068C85.7148 123.9 85.9435 123.662 86.1115 123.354C86.2795 123.037 86.3635 122.663 86.3635 122.234C86.3635 121.795 86.2795 121.422 86.1115 121.114C85.9435 120.806 85.7148 120.568 85.4255 120.4C85.1362 120.232 84.8095 120.148 84.4455 120.148C84.0815 120.148 83.7548 120.232 83.4655 120.4C83.1762 120.568 82.9428 120.806 82.7655 121.114C82.5975 121.422 82.5135 121.795 82.5135 122.234C82.5135 122.663 82.5975 123.037 82.7655 123.354C82.9428 123.662 83.1762 123.9 83.4655 124.068C83.7548 124.236 84.0815 124.32 84.4455 124.32ZM94.4873 126.112C93.8247 126.112 93.2553 125.972 92.7793 125.692C92.3033 125.412 91.9393 124.987 91.6873 124.418C91.4353 123.839 91.3093 123.111 91.3093 122.234C91.3093 121.347 91.44 120.619 91.7013 120.05C91.972 119.481 92.3453 119.056 92.8213 118.776C93.2973 118.496 93.8527 118.356 94.4873 118.356C95.1967 118.356 95.8313 118.515 96.3913 118.832C96.9607 119.149 97.4087 119.597 97.7353 120.176C98.0713 120.755 98.2393 121.441 98.2393 122.234C98.2393 123.018 98.0713 123.699 97.7353 124.278C97.4087 124.857 96.9607 125.309 96.3913 125.636C95.8313 125.953 95.1967 126.112 94.4873 126.112ZM90.0353 126V115.612H92.2193V119.994L92.0793 122.22L92.1213 124.46V126H90.0353ZM94.1093 124.32C94.4733 124.32 94.7953 124.236 95.0753 124.068C95.3647 123.9 95.5933 123.662 95.7613 123.354C95.9387 123.037 96.0273 122.663 96.0273 122.234C96.0273 121.795 95.9387 121.422 95.7613 121.114C95.5933 120.806 95.3647 120.568 95.0753 120.4C94.7953 120.232 94.4733 120.148 94.1093 120.148C93.7453 120.148 93.4187 120.232 93.1293 120.4C92.84 120.568 92.6113 120.806 92.4433 121.114C92.2753 121.422 92.1913 121.795 92.1913 122.234C92.1913 122.663 92.2753 123.037 92.4433 123.354C92.6113 123.662 92.84 123.9 93.1293 124.068C93.4187 124.236 93.7453 124.32 94.1093 124.32ZM103.439 126.112C102.581 126.112 101.825 125.944 101.171 125.608C100.527 125.272 100.028 124.815 99.6734 124.236C99.3187 123.648 99.1414 122.981 99.1414 122.234C99.1414 121.478 99.314 120.811 99.6594 120.232C100.014 119.644 100.495 119.187 101.101 118.86C101.708 118.524 102.394 118.356 103.159 118.356C103.897 118.356 104.559 118.515 105.147 118.832C105.745 119.14 106.216 119.588 106.561 120.176C106.907 120.755 107.079 121.45 107.079 122.262C107.079 122.346 107.075 122.444 107.065 122.556C107.056 122.659 107.047 122.757 107.037 122.85H100.919V121.576H105.889L105.049 121.954C105.049 121.562 104.97 121.221 104.811 120.932C104.653 120.643 104.433 120.419 104.153 120.26C103.873 120.092 103.547 120.008 103.173 120.008C102.8 120.008 102.469 120.092 102.179 120.26C101.899 120.419 101.68 120.647 101.521 120.946C101.363 121.235 101.283 121.581 101.283 121.982V122.318C101.283 122.729 101.372 123.093 101.549 123.41C101.736 123.718 101.993 123.956 102.319 124.124C102.655 124.283 103.047 124.362 103.495 124.362C103.897 124.362 104.247 124.301 104.545 124.18C104.853 124.059 105.133 123.877 105.385 123.634L106.547 124.894C106.202 125.286 105.768 125.589 105.245 125.804C104.723 126.009 104.121 126.112 103.439 126.112ZM50.9989 143V133.2H53.2669V143H50.9989ZM55.4387 143V132.612H57.6227V143H55.4387ZM59.6496 143V132.612H61.8336V143H59.6496ZM67.0385 143.112C66.4132 143.112 65.8532 142.991 65.3585 142.748C64.8732 142.505 64.4952 142.137 64.2245 141.642C63.9539 141.138 63.8185 140.499 63.8185 139.724V135.468H66.0025V139.402C66.0025 140.027 66.1332 140.489 66.3945 140.788C66.6652 141.077 67.0432 141.222 67.5285 141.222C67.8645 141.222 68.1632 141.152 68.4245 141.012C68.6859 140.863 68.8912 140.639 69.0405 140.34C69.1899 140.032 69.2645 139.649 69.2645 139.192V135.468H71.4485V143H69.3765V140.928L69.7545 141.53C69.5025 142.053 69.1292 142.449 68.6345 142.72C68.1492 142.981 67.6172 143.112 67.0385 143.112ZM76.0059 143.112C75.3619 143.112 74.7412 143.037 74.1439 142.888C73.5559 142.729 73.0892 142.533 72.7439 142.3L73.4719 140.732C73.8172 140.947 74.2232 141.124 74.6899 141.264C75.1659 141.395 75.6325 141.46 76.0899 141.46C76.5939 141.46 76.9485 141.399 77.1539 141.278C77.3685 141.157 77.4759 140.989 77.4759 140.774C77.4759 140.597 77.3919 140.466 77.2239 140.382C77.0652 140.289 76.8505 140.219 76.5799 140.172C76.3092 140.125 76.0105 140.079 75.6839 140.032C75.3665 139.985 75.0445 139.925 74.7179 139.85C74.3912 139.766 74.0925 139.645 73.8219 139.486C73.5512 139.327 73.3319 139.113 73.1639 138.842C73.0052 138.571 72.9259 138.221 72.9259 137.792C72.9259 137.316 73.0612 136.896 73.3319 136.532C73.6119 136.168 74.0132 135.883 74.5359 135.678C75.0585 135.463 75.6839 135.356 76.4119 135.356C76.9252 135.356 77.4479 135.412 77.9799 135.524C78.5119 135.636 78.9552 135.799 79.3099 136.014L78.5819 137.568C78.2179 137.353 77.8492 137.209 77.4759 137.134C77.1119 137.05 76.7572 137.008 76.4119 137.008C75.9265 137.008 75.5719 137.073 75.3479 137.204C75.1239 137.335 75.0119 137.503 75.0119 137.708C75.0119 137.895 75.0912 138.035 75.2499 138.128C75.4179 138.221 75.6372 138.296 75.9079 138.352C76.1785 138.408 76.4725 138.459 76.7899 138.506C77.1165 138.543 77.4432 138.604 77.7699 138.688C78.0965 138.772 78.3905 138.893 78.6519 139.052C78.9225 139.201 79.1419 139.411 79.3099 139.682C79.4779 139.943 79.5619 140.289 79.5619 140.718C79.5619 141.185 79.4219 141.6 79.1419 141.964C78.8619 142.319 78.4559 142.599 77.9239 142.804C77.4012 143.009 76.7619 143.112 76.0059 143.112ZM83.9894 143.112C83.1027 143.112 82.412 142.888 81.9174 142.44C81.4227 141.983 81.1754 141.306 81.1754 140.41V133.802H83.3594V140.382C83.3594 140.699 83.4434 140.947 83.6114 141.124C83.7794 141.292 84.008 141.376 84.2974 141.376C84.6427 141.376 84.9367 141.283 85.1794 141.096L85.7674 142.636C85.5434 142.795 85.2727 142.916 84.9554 143C84.6474 143.075 84.3254 143.112 83.9894 143.112ZM80.0134 137.316V135.636H85.2354V137.316H80.0134ZM86.9934 143V135.468H89.0794V137.596L88.7854 136.98C89.0094 136.448 89.3687 136.047 89.8634 135.776C90.358 135.496 90.96 135.356 91.6694 135.356V137.372C91.576 137.363 91.492 137.358 91.4174 137.358C91.3427 137.349 91.2634 137.344 91.1794 137.344C90.582 137.344 90.0967 137.517 89.7234 137.862C89.3594 138.198 89.1774 138.725 89.1774 139.444V143H86.9934ZM97.0958 143V141.53L96.9558 141.208V138.576C96.9558 138.109 96.8111 137.745 96.5218 137.484C96.2418 137.223 95.8078 137.092 95.2198 137.092C94.8184 137.092 94.4218 137.157 94.0298 137.288C93.6471 137.409 93.3204 137.577 93.0498 137.792L92.2658 136.266C92.6764 135.977 93.1711 135.753 93.7498 135.594C94.3284 135.435 94.9164 135.356 95.5138 135.356C96.6618 135.356 97.5531 135.627 98.1878 136.168C98.8224 136.709 99.1398 137.554 99.1398 138.702V143H97.0958ZM94.7998 143.112C94.2118 143.112 93.7078 143.014 93.2878 142.818C92.8678 142.613 92.5458 142.337 92.3218 141.992C92.0978 141.647 91.9858 141.259 91.9858 140.83C91.9858 140.382 92.0931 139.99 92.3078 139.654C92.5318 139.318 92.8818 139.057 93.3578 138.87C93.8338 138.674 94.4544 138.576 95.2198 138.576H97.2218V139.85H95.4578C94.9444 139.85 94.5898 139.934 94.3938 140.102C94.2071 140.27 94.1138 140.48 94.1138 140.732C94.1138 141.012 94.2211 141.236 94.4358 141.404C94.6598 141.563 94.9631 141.642 95.3458 141.642C95.7098 141.642 96.0364 141.558 96.3258 141.39C96.6151 141.213 96.8251 140.956 96.9558 140.62L97.2918 141.628C97.1331 142.113 96.8438 142.482 96.4238 142.734C96.0038 142.986 95.4624 143.112 94.7998 143.112ZM104.196 143.112C103.31 143.112 102.619 142.888 102.124 142.44C101.63 141.983 101.382 141.306 101.382 140.41V133.802H103.566V140.382C103.566 140.699 103.65 140.947 103.818 141.124C103.986 141.292 104.215 141.376 104.504 141.376C104.85 141.376 105.144 141.283 105.386 141.096L105.974 142.636C105.75 142.795 105.48 142.916 105.162 143C104.854 143.075 104.532 143.112 104.196 143.112ZM100.22 137.316V135.636H105.442V137.316H100.22ZM110.552 143.112C109.749 143.112 109.035 142.944 108.41 142.608C107.794 142.272 107.304 141.815 106.94 141.236C106.585 140.648 106.408 139.981 106.408 139.234C106.408 138.478 106.585 137.811 106.94 137.232C107.304 136.644 107.794 136.187 108.41 135.86C109.035 135.524 109.749 135.356 110.552 135.356C111.345 135.356 112.055 135.524 112.68 135.86C113.305 136.187 113.795 136.639 114.15 137.218C114.505 137.797 114.682 138.469 114.682 139.234C114.682 139.981 114.505 140.648 114.15 141.236C113.795 141.815 113.305 142.272 112.68 142.608C112.055 142.944 111.345 143.112 110.552 143.112ZM110.552 141.32C110.916 141.32 111.243 141.236 111.532 141.068C111.821 140.9 112.05 140.662 112.218 140.354C112.386 140.037 112.47 139.663 112.47 139.234C112.47 138.795 112.386 138.422 112.218 138.114C112.05 137.806 111.821 137.568 111.532 137.4C111.243 137.232 110.916 137.148 110.552 137.148C110.188 137.148 109.861 137.232 109.572 137.4C109.283 137.568 109.049 137.806 108.872 138.114C108.704 138.422 108.62 138.795 108.62 139.234C108.62 139.663 108.704 140.037 108.872 140.354C109.049 140.662 109.283 140.9 109.572 141.068C109.861 141.236 110.188 141.32 110.552 141.32ZM116.142 143V135.468H118.228V137.596L117.934 136.98C118.158 136.448 118.517 136.047 119.012 135.776C119.506 135.496 120.108 135.356 120.818 135.356V137.372C120.724 137.363 120.64 137.358 120.566 137.358C120.491 137.349 120.412 137.344 120.328 137.344C119.73 137.344 119.245 137.517 118.872 137.862C118.508 138.198 118.326 138.725 118.326 139.444V143H116.142Z" fill="#828282"/>
<path d="M43.0034 4.45312H124.764V85.458H43.0034V4.45312Z" fill="url(#paint0_radial_167_571)"/>
<path d="M43.0034 4.45367H124.764V85.4586H43.0034V4.45367ZM39.2878 89.2423H128.497V0.669922H39.2878V89.2423ZM97.7188 32.2496C97.7188 31.9404 97.826 31.7949 98.1654 31.7949H104.007C104.31 31.7949 104.453 31.904 104.453 32.2496V62.1194C104.453 62.4286 104.382 62.5742 104.007 62.5742H98.2368C97.8617 62.5742 97.7545 62.3923 97.7545 62.083V32.2496H97.7188ZM97.3079 23.6453C97.3079 21.2258 98.9871 19.7888 101.095 19.7888C103.364 19.7888 104.882 21.335 104.882 23.6453C104.882 26.1374 103.292 27.5018 101.024 27.5018C98.8799 27.52 97.3079 26.1556 97.3079 23.6453ZM80.5879 44.6923C79.5518 40.4902 77.0866 31.3401 76.1578 26.9015H76.0863C75.3003 31.3219 73.3353 38.8166 71.7812 44.6923H80.5879ZM70.2629 50.8227L67.3333 62.174C67.2618 62.4832 67.1546 62.556 66.7795 62.556H61.3133C60.9382 62.556 60.8667 62.4468 60.9382 61.9921L71.4954 24.3729C71.6741 23.6998 71.7991 23.0813 71.8706 21.2258C71.8706 20.953 71.9777 20.8438 72.1742 20.8438H79.9805C80.2485 20.8438 80.3556 20.9166 80.4271 21.2258L92.2526 62.0648C92.3241 62.3741 92.2526 62.556 91.9489 62.556H85.7861C85.4824 62.556 85.3038 62.4832 85.2323 62.2104L82.1777 50.8227H70.2629Z" fill="#FF7F18"/>
<path d="M12.5037 183.86C12.8036 182.939 14.1055 182.939 14.4053 183.86L16.1564 189.234C16.2906 189.646 16.6743 189.924 17.1072 189.924H22.768C23.7374 189.924 24.1397 191.165 23.3547 191.734L18.7798 195.049C18.4284 195.303 18.2813 195.756 18.4158 196.168L20.1643 201.535C20.4644 202.456 19.4111 203.223 18.6268 202.654L14.0413 199.332C13.6912 199.078 13.2179 199.078 12.8678 199.332L8.28228 202.654C7.49802 203.223 6.44473 202.456 6.74475 201.535L8.49333 196.168C8.62778 195.756 8.4807 195.303 8.12924 195.049L3.55437 191.734C2.76936 191.165 3.17169 189.924 4.14108 189.924H9.80184C10.2348 189.924 10.6185 189.646 10.7526 189.234L12.5037 183.86Z" fill="#070707"/>
<path d="M47.6009 183.86C47.9008 182.939 49.2027 182.939 49.5025 183.86L51.2536 189.234C51.3877 189.646 51.7715 189.924 52.2044 189.924H57.8652C58.8346 189.924 59.2369 191.165 58.4519 191.734L53.877 195.049C53.5256 195.303 53.3785 195.756 53.5129 196.168L55.2615 201.535C55.5615 202.456 54.5082 203.223 53.724 202.654L49.1384 199.332C48.7884 199.078 48.315 199.078 47.965 199.332L43.3794 202.654C42.5952 203.223 41.5419 202.456 41.8419 201.535L43.5905 196.168C43.7249 195.756 43.5779 195.303 43.2264 195.049L38.6515 191.734C37.8665 191.165 38.2689 189.924 39.2383 189.924H44.899C45.3319 189.924 45.7157 189.646 45.8498 189.234L47.6009 183.86Z" fill="#070707"/>
<path d="M82.6981 183.86C82.9979 182.939 84.2998 182.939 84.5997 183.86L86.3508 189.234C86.4849 189.646 86.8687 189.924 87.3016 189.924H92.9623C93.9317 189.924 94.3341 191.165 93.5491 191.734L88.9742 195.049C88.6227 195.303 88.4756 195.756 88.6101 196.168L90.3587 201.535C90.6587 202.456 89.6054 203.223 88.8211 202.654L84.2356 199.332C83.8856 199.078 83.4122 199.078 83.0622 199.332L78.4766 202.654C77.6924 203.223 76.6391 202.456 76.9391 201.535L78.6877 196.168C78.8221 195.756 78.675 195.303 78.3236 195.049L73.7487 191.734C72.9637 191.165 73.366 189.924 74.3354 189.924H79.9962C80.4291 189.924 80.8129 189.646 80.947 189.234L82.6981 183.86Z" fill="#070707"/>
<path d="M117.795 183.86C118.095 182.939 119.397 182.939 119.697 183.86L121.448 189.234C121.582 189.646 121.966 189.924 122.399 189.924H128.06C129.029 189.924 129.431 191.165 128.646 191.734L124.071 195.049C123.72 195.303 123.573 195.756 123.707 196.168L125.456 201.535C125.756 202.456 124.703 203.223 123.918 202.654L119.333 199.332C118.983 199.078 118.509 199.078 118.159 199.332L113.574 202.654C112.79 203.223 111.736 202.456 112.036 201.535L113.785 196.168C113.919 195.756 113.772 195.303 113.421 195.049L108.846 191.734C108.061 191.165 108.463 189.924 109.433 189.924H115.093C115.526 189.924 115.91 189.646 116.044 189.234L117.795 183.86Z" fill="#E5E5E5"/>
<path d="M152.892 183.86C153.192 182.939 154.494 182.939 154.794 183.86L156.545 189.234C156.679 189.646 157.063 189.924 157.496 189.924H163.157C164.126 189.924 164.528 191.165 163.743 191.734L159.169 195.049C158.817 195.303 158.67 195.756 158.804 196.168L160.553 201.535C160.853 202.456 159.8 203.223 159.015 202.654L154.43 199.332C154.08 199.078 153.607 199.078 153.256 199.332L148.671 202.654C147.887 203.223 146.833 202.456 147.133 201.535L148.882 196.168C149.016 195.756 148.869 195.303 148.518 195.049L143.943 191.734C143.158 191.165 143.56 189.924 144.53 189.924H150.191C150.623 189.924 151.007 189.646 151.141 189.234L152.892 183.86Z" fill="#E5E5E5"/>
<defs>
<radialGradient id="paint0_radial_167_571" cx="0" cy="0" r="1" gradientUnits="userSpaceOnUse" gradientTransform="translate(69.958 22.6304) scale(62.1406 61.2673)">
<stop stop-color="#423325" stop-opacity="0.98"/>
<stop offset="1" stop-color="#1C0A00"/>
</radialGradient>
</defs>
</svg>
