<svg width="168" height="207" viewBox="0 0 168 207" fill="none" xmlns="http://www.w3.org/2000/svg">
<path d="M42.9341 4.42578H124.599V85.2804H42.9341V4.42578Z" fill="url(#paint0_radial_167_556)"/>
<path d="M42.9341 4.42575H124.599V85.2803H42.9341V4.42575ZM39.2212 89.0596H128.294V0.646484H39.2212V89.0596ZM99.2876 36.9311C96.3602 36.9311 95.3605 38.4392 95.3605 39.6929C95.3605 41.0556 96.021 42.0004 99.9659 44.0717C105.785 46.9425 107.606 49.7043 107.606 53.7379C107.606 59.7884 103.072 63.0408 96.9492 63.0408C93.7183 63.0408 90.9337 62.3685 89.345 61.4237C89.0772 61.3146 89.0415 61.1148 89.0415 60.8241V55.246C89.0415 54.8645 89.22 54.7554 89.4878 54.9371C91.8262 56.4815 94.5037 57.172 96.9492 57.172C99.8767 57.172 101.108 55.9183 101.108 54.2285C101.108 52.8658 100.252 51.6666 96.503 49.6861C91.2371 47.1242 89.0415 44.526 89.0415 40.1653C89.0415 35.2958 92.7901 31.244 99.2876 31.244C102.483 31.244 104.714 31.7346 105.928 32.2979C106.231 32.4796 106.303 32.7884 106.303 33.061V38.2393C106.303 38.5482 106.124 38.7299 105.749 38.6209C104.107 37.567 101.697 36.9311 99.2876 36.9311ZM67.3712 41.419C68.228 41.4917 68.8885 41.4917 70.3701 41.4917C74.7077 41.4917 78.7954 39.9472 78.7954 33.9331C78.7954 29.1364 75.868 26.7198 70.9234 26.7198C69.4418 26.7198 68.0317 26.7925 67.3533 26.8288L67.3712 41.419ZM60.7487 21.3598C60.7487 21.0872 61.2664 20.9055 61.5698 20.9055C63.9439 20.7965 67.4783 20.7239 71.1376 20.7239C81.4194 20.7239 85.4358 26.4654 85.4358 33.7878C85.4358 43.3813 78.5991 47.5058 70.2094 47.5058C68.7992 47.5058 68.3173 47.4331 67.3176 47.4331V61.9324C67.3176 62.2413 67.2105 62.3867 66.8714 62.3867H61.195C60.8915 62.3867 60.7487 62.2776 60.7487 61.9324V21.3598Z" fill="#31C5F0"/>
<path d="M59.8662 128L64.2342 118.2H66.4742L70.8562 128H68.4762L64.8922 119.348H65.7882L62.1902 128H59.8662ZM62.0502 125.9L62.6522 124.178H67.6922L68.3082 125.9H62.0502ZM74.8846 128.112C74.1752 128.112 73.5359 127.953 72.9666 127.636C72.3972 127.309 71.9446 126.857 71.6086 126.278C71.2819 125.699 71.1186 125.018 71.1186 124.234C71.1186 123.441 71.2819 122.755 71.6086 122.176C71.9446 121.597 72.3972 121.149 72.9666 120.832C73.5359 120.515 74.1752 120.356 74.8846 120.356C75.5192 120.356 76.0746 120.496 76.5506 120.776C77.0266 121.056 77.3952 121.481 77.6566 122.05C77.9179 122.619 78.0486 123.347 78.0486 124.234C78.0486 125.111 77.9226 125.839 77.6706 126.418C77.4186 126.987 77.0546 127.412 76.5786 127.692C76.1119 127.972 75.5472 128.112 74.8846 128.112ZM75.2626 126.32C75.6172 126.32 75.9392 126.236 76.2286 126.068C76.5179 125.9 76.7466 125.662 76.9146 125.354C77.0919 125.037 77.1806 124.663 77.1806 124.234C77.1806 123.795 77.0919 123.422 76.9146 123.114C76.7466 122.806 76.5179 122.568 76.2286 122.4C75.9392 122.232 75.6172 122.148 75.2626 122.148C74.8986 122.148 74.5719 122.232 74.2826 122.4C73.9932 122.568 73.7599 122.806 73.5826 123.114C73.4146 123.422 73.3306 123.795 73.3306 124.234C73.3306 124.663 73.4146 125.037 73.5826 125.354C73.7599 125.662 73.9932 125.9 74.2826 126.068C74.5719 126.236 74.8986 126.32 75.2626 126.32ZM77.2366 128V126.46L77.2786 124.22L77.1386 121.994V117.612H79.3226V128H77.2366ZM84.9279 128.112C84.1253 128.112 83.4113 127.944 82.7859 127.608C82.1699 127.272 81.6799 126.815 81.3159 126.236C80.9613 125.648 80.7839 124.981 80.7839 124.234C80.7839 123.478 80.9613 122.811 81.3159 122.232C81.6799 121.644 82.1699 121.187 82.7859 120.86C83.4113 120.524 84.1253 120.356 84.9279 120.356C85.7213 120.356 86.4306 120.524 87.0559 120.86C87.6813 121.187 88.1713 121.639 88.5259 122.218C88.8806 122.797 89.0579 123.469 89.0579 124.234C89.0579 124.981 88.8806 125.648 88.5259 126.236C88.1713 126.815 87.6813 127.272 87.0559 127.608C86.4306 127.944 85.7213 128.112 84.9279 128.112ZM84.9279 126.32C85.2919 126.32 85.6186 126.236 85.9079 126.068C86.1973 125.9 86.4259 125.662 86.5939 125.354C86.7619 125.037 86.8459 124.663 86.8459 124.234C86.8459 123.795 86.7619 123.422 86.5939 123.114C86.4259 122.806 86.1973 122.568 85.9079 122.4C85.6186 122.232 85.2919 122.148 84.9279 122.148C84.5639 122.148 84.2373 122.232 83.9479 122.4C83.6586 122.568 83.4253 122.806 83.2479 123.114C83.0799 123.422 82.9959 123.795 82.9959 124.234C82.9959 124.663 83.0799 125.037 83.2479 125.354C83.4253 125.662 83.6586 125.9 83.9479 126.068C84.2373 126.236 84.5639 126.32 84.9279 126.32ZM94.9698 128.112C94.3071 128.112 93.7378 127.972 93.2618 127.692C92.7858 127.412 92.4218 126.987 92.1698 126.418C91.9178 125.839 91.7918 125.111 91.7918 124.234C91.7918 123.347 91.9224 122.619 92.1838 122.05C92.4544 121.481 92.8278 121.056 93.3038 120.776C93.7798 120.496 94.3351 120.356 94.9698 120.356C95.6791 120.356 96.3138 120.515 96.8738 120.832C97.4431 121.149 97.8911 121.597 98.2178 122.176C98.5538 122.755 98.7218 123.441 98.7218 124.234C98.7218 125.018 98.5538 125.699 98.2178 126.278C97.8911 126.857 97.4431 127.309 96.8738 127.636C96.3138 127.953 95.6791 128.112 94.9698 128.112ZM90.5178 128V117.612H92.7018V121.994L92.5618 124.22L92.6038 126.46V128H90.5178ZM94.5918 126.32C94.9558 126.32 95.2778 126.236 95.5578 126.068C95.8471 125.9 96.0758 125.662 96.2438 125.354C96.4211 125.037 96.5098 124.663 96.5098 124.234C96.5098 123.795 96.4211 123.422 96.2438 123.114C96.0758 122.806 95.8471 122.568 95.5578 122.4C95.2778 122.232 94.9558 122.148 94.5918 122.148C94.2278 122.148 93.9011 122.232 93.6118 122.4C93.3224 122.568 93.0938 122.806 92.9258 123.114C92.7578 123.422 92.6738 123.795 92.6738 124.234C92.6738 124.663 92.7578 125.037 92.9258 125.354C93.0938 125.662 93.3224 125.9 93.6118 126.068C93.9011 126.236 94.2278 126.32 94.5918 126.32ZM103.922 128.112C103.063 128.112 102.307 127.944 101.654 127.608C101.01 127.272 100.51 126.815 100.156 126.236C99.8011 125.648 99.6238 124.981 99.6238 124.234C99.6238 123.478 99.7964 122.811 100.142 122.232C100.496 121.644 100.977 121.187 101.584 120.86C102.19 120.524 102.876 120.356 103.642 120.356C104.379 120.356 105.042 120.515 105.63 120.832C106.227 121.14 106.698 121.588 107.044 122.176C107.389 122.755 107.562 123.45 107.562 124.262C107.562 124.346 107.557 124.444 107.548 124.556C107.538 124.659 107.529 124.757 107.52 124.85H101.402V123.576H106.372L105.532 123.954C105.532 123.562 105.452 123.221 105.294 122.932C105.135 122.643 104.916 122.419 104.636 122.26C104.356 122.092 104.029 122.008 103.656 122.008C103.282 122.008 102.951 122.092 102.662 122.26C102.382 122.419 102.162 122.647 102.004 122.946C101.845 123.235 101.766 123.581 101.766 123.982V124.318C101.766 124.729 101.854 125.093 102.032 125.41C102.218 125.718 102.475 125.956 102.802 126.124C103.138 126.283 103.53 126.362 103.978 126.362C104.379 126.362 104.729 126.301 105.028 126.18C105.336 126.059 105.616 125.877 105.868 125.634L107.03 126.894C106.684 127.286 106.25 127.589 105.728 127.804C105.205 128.009 104.603 128.112 103.922 128.112ZM45.0624 145V135.2H49.3044C50.1817 135.2 50.9377 135.345 51.5724 135.634C52.2071 135.914 52.6971 136.32 53.0424 136.852C53.3877 137.384 53.5604 138.019 53.5604 138.756C53.5604 139.484 53.3877 140.114 53.0424 140.646C52.6971 141.178 52.2071 141.589 51.5724 141.878C50.9377 142.158 50.1817 142.298 49.3044 142.298H46.3224L47.3304 141.276V145H45.0624ZM47.3304 141.528L46.3224 140.45H49.1784C49.8784 140.45 50.4011 140.301 50.7464 140.002C51.0917 139.703 51.2644 139.288 51.2644 138.756C51.2644 138.215 51.0917 137.795 50.7464 137.496C50.4011 137.197 49.8784 137.048 49.1784 137.048H46.3224L47.3304 135.97V141.528ZM59.7403 137.356C60.3376 137.356 60.8696 137.477 61.3363 137.72C61.8123 137.953 62.1856 138.317 62.4563 138.812C62.727 139.297 62.8623 139.923 62.8623 140.688V145H60.6783V141.024C60.6783 140.417 60.543 139.969 60.2723 139.68C60.011 139.391 59.6376 139.246 59.1523 139.246C58.807 139.246 58.4943 139.321 58.2143 139.47C57.9436 139.61 57.729 139.829 57.5703 140.128C57.421 140.427 57.3463 140.809 57.3463 141.276V145H55.1623V134.612H57.3463V139.554L56.8563 138.924C57.127 138.42 57.5143 138.033 58.0183 137.762C58.5223 137.491 59.0963 137.356 59.7403 137.356ZM68.4807 145.112C67.678 145.112 66.964 144.944 66.3387 144.608C65.7227 144.272 65.2327 143.815 64.8687 143.236C64.514 142.648 64.3367 141.981 64.3367 141.234C64.3367 140.478 64.514 139.811 64.8687 139.232C65.2327 138.644 65.7227 138.187 66.3387 137.86C66.964 137.524 67.678 137.356 68.4807 137.356C69.274 137.356 69.9833 137.524 70.6087 137.86C71.234 138.187 71.724 138.639 72.0787 139.218C72.4333 139.797 72.6107 140.469 72.6107 141.234C72.6107 141.981 72.4333 142.648 72.0787 143.236C71.724 143.815 71.234 144.272 70.6087 144.608C69.9833 144.944 69.274 145.112 68.4807 145.112ZM68.4807 143.32C68.8447 143.32 69.1713 143.236 69.4607 143.068C69.75 142.9 69.9787 142.662 70.1467 142.354C70.3147 142.037 70.3987 141.663 70.3987 141.234C70.3987 140.795 70.3147 140.422 70.1467 140.114C69.9787 139.806 69.75 139.568 69.4607 139.4C69.1713 139.232 68.8447 139.148 68.4807 139.148C68.1167 139.148 67.79 139.232 67.5007 139.4C67.2113 139.568 66.978 139.806 66.8007 140.114C66.6327 140.422 66.5487 140.795 66.5487 141.234C66.5487 141.663 66.6327 142.037 66.8007 142.354C66.978 142.662 67.2113 142.9 67.5007 143.068C67.79 143.236 68.1167 143.32 68.4807 143.32ZM77.1505 145.112C76.2638 145.112 75.5732 144.888 75.0785 144.44C74.5838 143.983 74.3365 143.306 74.3365 142.41V135.802H76.5205V142.382C76.5205 142.699 76.6045 142.947 76.7725 143.124C76.9405 143.292 77.1692 143.376 77.4585 143.376C77.8038 143.376 78.0978 143.283 78.3405 143.096L78.9285 144.636C78.7045 144.795 78.4338 144.916 78.1165 145C77.8085 145.075 77.4865 145.112 77.1505 145.112ZM73.1745 139.316V137.636H78.3965V139.316H73.1745ZM83.5061 145.112C82.7034 145.112 81.9894 144.944 81.3641 144.608C80.7481 144.272 80.2581 143.815 79.8941 143.236C79.5394 142.648 79.3621 141.981 79.3621 141.234C79.3621 140.478 79.5394 139.811 79.8941 139.232C80.2581 138.644 80.7481 138.187 81.3641 137.86C81.9894 137.524 82.7034 137.356 83.5061 137.356C84.2994 137.356 85.0087 137.524 85.6341 137.86C86.2594 138.187 86.7494 138.639 87.1041 139.218C87.4587 139.797 87.6361 140.469 87.6361 141.234C87.6361 141.981 87.4587 142.648 87.1041 143.236C86.7494 143.815 86.2594 144.272 85.6341 144.608C85.0087 144.944 84.2994 145.112 83.5061 145.112ZM83.5061 143.32C83.8701 143.32 84.1967 143.236 84.4861 143.068C84.7754 142.9 85.0041 142.662 85.1721 142.354C85.3401 142.037 85.4241 141.663 85.4241 141.234C85.4241 140.795 85.3401 140.422 85.1721 140.114C85.0041 139.806 84.7754 139.568 84.4861 139.4C84.1967 139.232 83.8701 139.148 83.5061 139.148C83.1421 139.148 82.8154 139.232 82.5261 139.4C82.2367 139.568 82.0034 139.806 81.8261 140.114C81.6581 140.422 81.5741 140.795 81.5741 141.234C81.5741 141.663 81.6581 142.037 81.8261 142.354C82.0034 142.662 82.2367 142.9 82.5261 143.068C82.8154 143.236 83.1421 143.32 83.5061 143.32ZM91.6299 145.112C90.9859 145.112 90.3652 145.037 89.7679 144.888C89.1799 144.729 88.7132 144.533 88.3679 144.3L89.0959 142.732C89.4412 142.947 89.8472 143.124 90.3139 143.264C90.7899 143.395 91.2566 143.46 91.7139 143.46C92.2179 143.46 92.5726 143.399 92.7779 143.278C92.9926 143.157 93.0999 142.989 93.0999 142.774C93.0999 142.597 93.0159 142.466 92.8479 142.382C92.6892 142.289 92.4746 142.219 92.2039 142.172C91.9332 142.125 91.6346 142.079 91.3079 142.032C90.9906 141.985 90.6686 141.925 90.3419 141.85C90.0152 141.766 89.7166 141.645 89.4459 141.486C89.1752 141.327 88.9559 141.113 88.7879 140.842C88.6292 140.571 88.5499 140.221 88.5499 139.792C88.5499 139.316 88.6852 138.896 88.9559 138.532C89.2359 138.168 89.6372 137.883 90.1599 137.678C90.6826 137.463 91.3079 137.356 92.0359 137.356C92.5492 137.356 93.0719 137.412 93.6039 137.524C94.1359 137.636 94.5792 137.799 94.9339 138.014L94.2059 139.568C93.8419 139.353 93.4732 139.209 93.0999 139.134C92.7359 139.05 92.3812 139.008 92.0359 139.008C91.5506 139.008 91.1959 139.073 90.9719 139.204C90.7479 139.335 90.6359 139.503 90.6359 139.708C90.6359 139.895 90.7152 140.035 90.8739 140.128C91.0419 140.221 91.2612 140.296 91.5319 140.352C91.8026 140.408 92.0966 140.459 92.4139 140.506C92.7406 140.543 93.0672 140.604 93.3939 140.688C93.7206 140.772 94.0146 140.893 94.2759 141.052C94.5466 141.201 94.7659 141.411 94.9339 141.682C95.1019 141.943 95.1859 142.289 95.1859 142.718C95.1859 143.185 95.0459 143.6 94.7659 143.964C94.4859 144.319 94.0799 144.599 93.5479 144.804C93.0252 145.009 92.3859 145.112 91.6299 145.112ZM101.111 137.356C101.709 137.356 102.241 137.477 102.707 137.72C103.183 137.953 103.557 138.317 103.827 138.812C104.098 139.297 104.233 139.923 104.233 140.688V145H102.049V141.024C102.049 140.417 101.914 139.969 101.643 139.68C101.382 139.391 101.009 139.246 100.523 139.246C100.178 139.246 99.8654 139.321 99.5854 139.47C99.3147 139.61 99.1001 139.829 98.9414 140.128C98.7921 140.427 98.7174 140.809 98.7174 141.276V145H96.5334V134.612H98.7174V139.554L98.2274 138.924C98.4981 138.42 98.8854 138.033 99.3894 137.762C99.8934 137.491 100.467 137.356 101.111 137.356ZM109.852 145.112C109.049 145.112 108.335 144.944 107.71 144.608C107.094 144.272 106.604 143.815 106.24 143.236C105.885 142.648 105.708 141.981 105.708 141.234C105.708 140.478 105.885 139.811 106.24 139.232C106.604 138.644 107.094 138.187 107.71 137.86C108.335 137.524 109.049 137.356 109.852 137.356C110.645 137.356 111.354 137.524 111.98 137.86C112.605 138.187 113.095 138.639 113.45 139.218C113.804 139.797 113.982 140.469 113.982 141.234C113.982 141.981 113.804 142.648 113.45 143.236C113.095 143.815 112.605 144.272 111.98 144.608C111.354 144.944 110.645 145.112 109.852 145.112ZM109.852 143.32C110.216 143.32 110.542 143.236 110.832 143.068C111.121 142.9 111.35 142.662 111.518 142.354C111.686 142.037 111.77 141.663 111.77 141.234C111.77 140.795 111.686 140.422 111.518 140.114C111.35 139.806 111.121 139.568 110.832 139.4C110.542 139.232 110.216 139.148 109.852 139.148C109.488 139.148 109.161 139.232 108.872 139.4C108.582 139.568 108.349 139.806 108.172 140.114C108.004 140.422 107.92 140.795 107.92 141.234C107.92 141.663 108.004 142.037 108.172 142.354C108.349 142.662 108.582 142.9 108.872 143.068C109.161 143.236 109.488 143.32 109.852 143.32ZM119.894 145.112C119.259 145.112 118.704 144.972 118.228 144.692C117.752 144.412 117.378 143.987 117.108 143.418C116.846 142.839 116.716 142.111 116.716 141.234C116.716 140.347 116.842 139.619 117.094 139.05C117.346 138.481 117.71 138.056 118.186 137.776C118.662 137.496 119.231 137.356 119.894 137.356C120.603 137.356 121.238 137.519 121.798 137.846C122.367 138.163 122.815 138.611 123.142 139.19C123.478 139.769 123.646 140.45 123.646 141.234C123.646 142.027 123.478 142.713 123.142 143.292C122.815 143.871 122.367 144.319 121.798 144.636C121.238 144.953 120.603 145.112 119.894 145.112ZM115.442 147.716V137.468H117.528V139.008L117.486 141.248L117.626 143.474V147.716H115.442ZM119.516 143.32C119.88 143.32 120.202 143.236 120.482 143.068C120.771 142.9 121 142.662 121.168 142.354C121.345 142.037 121.434 141.663 121.434 141.234C121.434 140.795 121.345 140.422 121.168 140.114C121 139.806 120.771 139.568 120.482 139.4C120.202 139.232 119.88 139.148 119.516 139.148C119.152 139.148 118.825 139.232 118.536 139.4C118.246 139.568 118.018 139.806 117.85 140.114C117.682 140.422 117.598 140.795 117.598 141.234C117.598 141.663 117.682 142.037 117.85 142.354C118.018 142.662 118.246 142.9 118.536 143.068C118.825 143.236 119.152 143.32 119.516 143.32Z" fill="#828282"/>
<path d="M12.7933 183.86C13.0931 182.939 14.3951 182.939 14.6949 183.86L16.446 189.234C16.5801 189.646 16.9639 189.924 17.3968 189.924H23.0576C24.0269 189.924 24.4293 191.165 23.6443 191.734L19.0694 195.049C18.7179 195.303 18.5709 195.756 18.7053 196.168L20.4539 201.535C20.7539 202.456 19.7006 203.223 18.9164 202.654L14.3308 199.332C13.9808 199.078 13.5074 199.078 13.1574 199.332L8.57183 202.654C7.78757 203.223 6.73428 202.456 7.0343 201.535L8.78288 196.168C8.91733 195.756 8.77025 195.303 8.41879 195.049L3.84392 191.734C3.05891 191.165 3.46124 189.924 4.43064 189.924H10.0914C10.5243 189.924 10.9081 189.646 11.0422 189.234L12.7933 183.86Z" fill="#070707"/>
<path d="M47.8905 183.86C48.1903 182.939 49.4922 182.939 49.7921 183.86L51.5432 189.234C51.6773 189.646 52.061 189.924 52.494 189.924H58.1547C59.1241 189.924 59.5264 191.165 58.7414 191.734L54.1666 195.049C53.8151 195.303 53.668 195.756 53.8025 196.168L55.5511 201.535C55.8511 202.456 54.7978 203.223 54.0135 202.654L49.428 199.332C49.0779 199.078 48.6046 199.078 48.2545 199.332L43.669 202.654C42.8847 203.223 41.8314 202.456 42.1315 201.535L43.88 196.168C44.0145 195.756 43.8674 195.303 43.516 195.049L38.9411 191.734C38.1561 191.165 38.5584 189.924 39.5278 189.924H45.1886C45.6215 189.924 46.0052 189.646 46.1394 189.234L47.8905 183.86Z" fill="#070707"/>
<path d="M82.9874 183.86C83.2872 182.939 84.5891 182.939 84.889 183.86L86.6401 189.234C86.7742 189.646 87.158 189.924 87.5909 189.924H93.2516C94.221 189.924 94.6234 191.165 93.8384 191.734L89.2635 195.049C88.912 195.303 88.7649 195.756 88.8994 196.168L90.648 201.535C90.948 202.456 89.8947 203.223 89.1105 202.654L84.5249 199.332C84.1749 199.078 83.7015 199.078 83.3515 199.332L78.7659 202.654C77.9817 203.223 76.9284 202.456 77.2284 201.535L78.977 196.168C79.1114 195.756 78.9643 195.303 78.6129 195.049L74.038 191.734C73.253 191.165 73.6553 189.924 74.6247 189.924H80.2855C80.7184 189.924 81.1022 189.646 81.2363 189.234L82.9874 183.86Z" fill="#070707"/>
<path d="M118.085 183.86C118.384 182.939 119.686 182.939 119.986 183.86L121.737 189.234C121.871 189.646 122.255 189.924 122.688 189.924H128.349C129.318 189.924 129.721 191.165 128.936 191.734L124.361 195.049C124.009 195.303 123.862 195.756 123.997 196.168L125.745 201.535C126.045 202.456 124.992 203.223 124.208 202.654L119.622 199.332C119.272 199.078 118.799 199.078 118.449 199.332L113.863 202.654C113.079 203.223 112.026 202.456 112.326 201.535L114.074 196.168C114.209 195.756 114.062 195.303 113.71 195.049L109.135 191.734C108.35 191.165 108.753 189.924 109.722 189.924H115.383C115.816 189.924 116.199 189.646 116.333 189.234L118.085 183.86Z" fill="#070707"/>
<path d="M153.182 183.86C153.482 182.939 154.783 182.939 155.083 183.86L156.834 189.234C156.969 189.646 157.352 189.924 157.785 189.924H163.446C164.415 189.924 164.818 191.165 164.033 191.734L159.458 195.049C159.106 195.303 158.959 195.756 159.094 196.168L160.842 201.535C161.142 202.456 160.089 203.223 159.305 202.654L154.719 199.332C154.369 199.078 153.896 199.078 153.546 199.332L148.96 202.654C148.176 203.223 147.123 202.456 147.423 201.535L149.171 196.168C149.306 195.756 149.159 195.303 148.807 195.049L144.232 191.734C143.447 191.165 143.85 189.924 144.819 189.924H150.48C150.913 189.924 151.297 189.646 151.431 189.234L153.182 183.86Z" fill="#E5E5E5"/>
<defs>
<radialGradient id="paint0_radial_167_556" cx="0" cy="0" r="1" gradientUnits="userSpaceOnUse" gradientTransform="translate(69.8385 22.5656) scale(62.0565 61.1565)">
<stop stop-color="#34364E" stop-opacity="0.98"/>
<stop offset="1" stop-color="#0C0824"/>
</radialGradient>
</defs>
</svg>
